# xmcd
#
# Track frame offsets:
# 150
# 17125
# 33172
#
# Disc length: 648 seconds
#
#
# Revision: 0
# Processed by: cddbd v1.5.1PL0 Copyright (c) Steve Scherf et al.
# Submitted via: FreeRIP 2.941 
#
DISCID=18028603
DTITLE=Pete Murray - Better days (single)
DYEAR=2005
DGENRE=Acoustic
TTITLE0=Better days
TTITLE1=Back on
TTITLE2=Belong to yesterday
EXTD=
EXTT0=
EXTT1=
EXTT2=
PLAYORDER=
